<?xml version="1.0" encoding="utf-8"?>
<!-- Generator: Adobe Illustrator 23.0.3, SVG Export Plug-In . SVG Version: 6.00 Build 0)  -->
<svg version="1.1" id="Layer_1" xmlns="http://www.w3.org/2000/svg" xmlns:xlink="http://www.w3.org/1999/xlink" x="0px" y="0px"
	 viewBox="0 0 500 500" style="enable-background:new 0 0 500 500;" xml:space="preserve">
<style type="text/css">
	.st0{fill:none;stroke:#D9E900;stroke-width:2;stroke-miterlimit:10;}
	.st1{fill:none;stroke:#00746F;stroke-width:2;stroke-miterlimit:10;}
	.st2{fill:#FFFFFF;stroke:#FF6400;stroke-width:2;stroke-miterlimit:10;}
	.st3{fill:#FFFFFF;stroke:#FF6400;stroke-width:3;stroke-miterlimit:10;}
</style>
<path class="st0" d="M176.82,178.4c-13.59,4.35-130.73,41.86-141.23,128.95c-5.92,49.05,25.06,88.33,35.31,101.32
	c69.9,88.64,201.31,74.92,231.8,70.62c43.78-6.18,105-14.81,136.63-64.48c38.2-59.98,12.47-147.21-33.77-196.5
	C325.58,133.08,194.84,172.63,176.82,178.4z"/>
<path class="st0" d="M361.03,184.54c-14.12-7.18-46.51-21.94-90.57-26.1c-104.66-9.88-179.33,49.07-194.96,61.41
	c-21.64,17.08-36.27,28.94-44.52,50.66c-20.79,54.75,21.43,113.07,30.7,125.88c38.74,53.51,94.74,70.32,121.28,78.29
	c22.44,6.74,85.64,22.47,158.12-1.54c29.38-9.73,62.01-20.54,87.5-52.19c37.59-46.67,42.91-117.85,13.82-168.86
	C421.38,215.24,387.62,198.07,361.03,184.54z"/>
<circle class="st1" cx="421.67" cy="357.25" r="19.19"/>
<circle class="st1" cx="263.55" cy="381.81" r="25.33"/>
<path class="st2" d="M219.8,229.06c-1.11-11.23-8.25-95.97,49.12-139.7c4.74-3.61,39.03-29.75,56.8-18.42
	c25.28,16.12,18.38,108.88-36.84,144.3C262.73,232.03,233.83,230.74,219.8,229.06z"/>
<path class="st3" d="M235.15,247.48c-25.47,10.15-125.88-107.32-98.25-198.03c1.31-4.29,12.71-40.56,30.7-41.45
	c2.57-0.13,5.68,0.55,11.13,4.19c7.01,4.68,17.08,13.75,37.88,70.65c1.88,5.15,6.14,16.97,10.01,32.92c0.6,2.46,1.06,4.51,1.41,6.08
	c12.99,58.8,20.63,81.42,14.42,108.44C240.05,240.74,238.79,246.04,235.15,247.48z"/>
<line class="st1" x1="306.54" y1="381.81" x2="390.97" y2="366.46"/>
</svg>
