# Blender v2.79 (sub 0) OBJ File: 'lefthandClose.blend'
# www.blender.org
mtllib lefthandClose.mtl
o Cube.001
v 1.229852 -0.688950 -0.462694
v 1.229852 -0.688950 0.462694
v -1.223738 -0.688950 0.462694
v -1.223737 -0.688950 -0.462694
v 1.218878 0.493376 -0.458555
v 1.218877 0.493376 0.458555
v -1.212763 0.493376 0.458555
v -1.212763 0.493376 -0.458555
v 1.451676 0.493376 -0.546356
v 1.451675 0.493376 0.546357
v -1.445561 0.493376 -0.546357
v -1.445561 0.493376 0.546356
v 1.451676 1.232569 -0.546356
v 1.451675 1.232569 0.546357
v -1.445561 1.232569 -0.546357
v -1.445561 1.232569 0.546356
v 1.645910 1.232569 -0.619613
v 1.645908 1.232569 0.619613
v -1.639794 1.232569 -0.619613
v -1.639795 1.232569 0.619613
v 1.619762 2.801366 -0.702486
v 1.609974 2.401336 0.551093
v -1.639794 2.298281 -0.619613
v -1.639795 2.298281 0.619613
v 1.645910 2.722414 -0.619613
v 1.645908 2.722414 0.619613
v -1.639794 2.722414 -0.619613
v -1.639795 2.722414 0.619613
v 2.155985 1.774962 -0.959804
v 2.403994 1.769765 0.122906
v 1.501914 2.565557 -1.111358
v 2.106946 3.016734 -0.439346
v 2.122882 2.483004 -1.803525
v 2.087347 3.014785 -1.944187
v 0.962620 2.501165 -1.801614
v 1.104319 2.911186 -1.346158
v 1.515392 3.976443 -0.588190
v 1.515391 3.976444 0.472224
v -1.385430 3.993570 -0.588512
v -1.385431 3.993570 0.471901
v 1.506837 4.811768 -1.193527
v 1.506835 4.850002 -0.133803
v -1.314768 4.561033 -0.950587
v -1.304681 4.828887 -0.133042
v 1.419297 3.983516 -1.755232
v 1.420557 5.179655 -1.371964
v -1.391867 3.953078 -1.716400
v -1.390606 5.149217 -1.333133
v 1.584417 3.745839 -2.330637
v 1.500128 4.813843 -2.056008
v -1.226928 3.718950 -2.304250
v -1.311216 4.786954 -2.029622
vn 0.0000 -1.0000 0.0000
vn 1.0000 0.0093 0.0000
vn -0.0000 0.0035 1.0000
vn -1.0000 0.0093 -0.0000
vn 0.0000 0.0035 -1.0000
vn -1.0000 0.0000 -0.0000
vn 0.0000 0.0000 -1.0000
vn -0.0000 0.0000 1.0000
vn 1.0000 0.0000 0.0000
vn 0.0119 -0.0921 0.9957
vn -0.0102 -0.0315 -0.9995
vn 0.0100 0.0308 0.9995
vn 0.6203 -0.7814 -0.0680
vn 0.0003 0.1161 0.9932
vn 0.9729 -0.2289 -0.0329
vn -0.0304 0.2355 -0.9714
vn 0.9811 -0.0841 -0.1743
vn -0.7973 -0.2828 -0.5332
vn -0.4536 0.8835 0.1168
vn 0.6175 0.2773 0.7361
vn -0.2665 0.3324 -0.9047
vn 0.6660 0.7459 -0.0096
vn -0.6679 -0.3080 0.6776
vn -0.3797 -0.8951 -0.2339
vn -0.9948 0.1011 -0.0091
vn 0.9946 0.1035 0.0000
vn -0.9806 0.1962 -0.0000
vn 0.0001 0.0247 -0.9997
vn -0.0070 0.9661 0.2580
vn -0.0118 -0.5673 -0.8234
vn -0.0003 0.5782 0.8159
vn 1.0000 0.0099 -0.0002
vn 0.9793 -0.0225 0.2011
vn 0.9770 0.1616 -0.1391
vn -0.9934 -0.0680 0.0923
vn 0.0705 -0.6814 0.7285
vn -0.0115 0.2482 -0.9686
vn -0.9803 0.0211 -0.1963
vn 0.0138 -0.9252 0.3792
vn -0.0144 0.8837 -0.4677
usemtl Material
s off
f 1//1 2//1 3//1 4//1
f 7//1 6//1 10//1 12//1
f 1//2 5//2 6//2 2//2
f 2//3 6//3 7//3 3//3
f 3//4 7//4 8//4 4//4
f 5//5 1//5 4//5 8//5
f 11//6 12//6 16//6 15//6
f 6//1 5//1 9//1 10//1
f 8//1 7//1 12//1 11//1
f 5//1 8//1 11//1 9//1
f 13//1 15//1 19//1 17//1
f 9//7 11//7 15//7 13//7
f 12//8 10//8 14//8 16//8
f 10//9 9//9 13//9 14//9
f 19//6 20//6 24//6 23//6
f 16//1 14//1 18//1 20//1
f 14//1 13//1 17//1 18//1
f 15//1 16//1 20//1 19//1
f 24//10 22//10 26//10 28//10
f 17//11 19//11 23//11 21//11
f 20//12 18//12 22//12 24//12
f 18//13 17//13 29//13 30//13
f 28//14 26//14 38//14 40//14
f 22//15 21//15 25//15 26//15
f 23//6 24//6 28//6 27//6
f 21//16 23//16 27//16 25//16
f 30//17 29//17 33//17 34//17
f 17//18 21//18 31//18 29//18
f 21//19 22//19 32//19 31//19
f 22//20 18//20 30//20 32//20
f 34//21 33//21 35//21 36//21
f 32//22 30//22 34//22 36//22
f 31//23 32//23 36//23 35//23
f 29//24 31//24 35//24 33//24
f 39//25 40//25 44//25 43//25
f 26//26 25//26 37//26 38//26
f 27//27 28//27 40//27 39//27
f 25//28 27//28 39//28 37//28
f 44//29 42//29 46//29 48//29
f 37//30 39//30 43//30 41//30
f 40//31 38//31 42//31 44//31
f 38//32 37//32 41//32 42//32
f 46//33 45//33 49//33 50//33
f 42//34 41//34 45//34 46//34
f 43//35 44//35 48//35 47//35
f 41//36 43//36 47//36 45//36
f 49//37 51//37 52//37 50//37
f 47//38 48//38 52//38 51//38
f 45//39 47//39 51//39 49//39
f 48//40 46//40 50//40 52//40
