# Blender v2.79 (sub 0) OBJ File: 'lefthand.blend'
# www.blender.org
mtllib lefthand.mtl
o Cube
v 1.226795 -0.591163 -0.462694
v 1.226795 -0.591163 0.462694
v -1.226795 -0.591163 0.462694
v -1.226794 -0.591163 -0.462694
v 1.215821 0.591163 -0.458555
v 1.215820 0.591163 0.458555
v -1.215821 0.591163 0.458555
v -1.215820 0.591163 -0.458555
v 1.448619 0.591163 -0.546356
v 1.448617 0.591163 0.546357
v -1.448618 0.591163 -0.546357
v -1.448619 0.591163 0.546356
v 1.448619 1.330355 -0.546356
v 1.448617 1.330355 0.546357
v -1.448618 1.330355 -0.546357
v -1.448619 1.330355 0.546356
v 1.642853 1.330355 -0.619613
v 1.642851 1.330355 0.619613
v -1.642852 1.330355 -0.619613
v -1.642852 1.330355 0.619613
v 1.606918 2.499123 -0.688133
v 1.606917 2.499123 0.551093
v -1.642852 2.396068 -0.619613
v -1.642852 2.396068 0.619613
v 1.642853 2.820201 -0.619613
v 1.642851 2.820201 0.619613
v -1.642852 2.820201 -0.619613
v -1.642852 2.820201 0.619613
v 2.302787 1.827877 -0.619612
v 2.302785 1.827877 0.619614
v 2.266853 2.996644 -0.688132
v 2.266851 2.996644 0.551094
v 3.137616 3.045624 -0.302073
v 3.137615 3.045624 0.264906
v 2.887222 3.518406 -0.333423
v 2.887221 3.518406 0.233557
v 1.222144 6.511914 -0.472858
v 1.222143 6.511914 0.472859
v -1.222143 5.952484 -0.472859
v -1.222144 5.952484 0.472858
vn 0.0000 -1.0000 0.0000
vn 1.0000 0.0093 0.0000
vn -0.0000 0.0035 1.0000
vn -1.0000 0.0093 -0.0000
vn 0.0000 0.0035 -1.0000
vn -1.0000 0.0000 -0.0000
vn 0.0000 0.0000 -1.0000
vn -0.0000 0.0000 1.0000
vn 1.0000 0.0000 0.0000
vn 0.0119 -0.0921 0.9957
vn -0.0100 -0.0308 -0.9995
vn 0.0100 0.0308 0.9995
vn 0.6020 -0.7985 0.0000
vn -0.0042 0.0430 0.9991
vn 0.9938 -0.1112 0.0000
vn -0.0119 0.0921 -0.9957
vn 0.8248 -0.5654 0.0000
vn 0.0431 -0.0572 -0.9974
vn -0.6020 0.7985 -0.0000
vn -0.0431 0.0572 0.9974
vn 0.8837 0.4680 0.0000
vn 0.3047 0.1107 0.9460
vn -0.6437 0.7653 -0.0000
vn 0.4046 0.0149 -0.9144
vn -0.2231 0.9748 -0.0000
vn 0.9936 0.1132 0.0000
vn -0.9911 0.1331 -0.0000
vn -0.0042 0.0430 -0.9991
usemtl Material
s off
f 1//1 2//1 3//1 4//1
f 7//1 6//1 10//1 12//1
f 1//2 5//2 6//2 2//2
f 2//3 6//3 7//3 3//3
f 3//4 7//4 8//4 4//4
f 5//5 1//5 4//5 8//5
f 11//6 12//6 16//6 15//6
f 6//1 5//1 9//1 10//1
f 8//1 7//1 12//1 11//1
f 5//1 8//1 11//1 9//1
f 13//1 15//1 19//1 17//1
f 9//7 11//7 15//7 13//7
f 12//8 10//8 14//8 16//8
f 10//9 9//9 13//9 14//9
f 19//6 20//6 24//6 23//6
f 16//1 14//1 18//1 20//1
f 14//1 13//1 17//1 18//1
f 15//1 16//1 20//1 19//1
f 24//10 22//10 26//10 28//10
f 17//11 19//11 23//11 21//11
f 20//12 18//12 22//12 24//12
f 18//13 17//13 29//13 30//13
f 28//14 26//14 38//14 40//14
f 22//15 21//15 25//15 26//15
f 23//6 24//6 28//6 27//6
f 21//16 23//16 27//16 25//16
f 30//17 29//17 33//17 34//17
f 17//18 21//18 31//18 29//18
f 21//19 22//19 32//19 31//19
f 22//20 18//20 30//20 32//20
f 34//21 33//21 35//21 36//21
f 32//22 30//22 34//22 36//22
f 31//23 32//23 36//23 35//23
f 29//24 31//24 35//24 33//24
f 37//25 39//25 40//25 38//25
f 26//26 25//26 37//26 38//26
f 27//27 28//27 40//27 39//27
f 25//28 27//28 39//28 37//28
